# xmcd CD database file
#
# Track frame offsets:
#	183
#	14260
#	27290
#	39023
#	52945
#	66908
#	81325
#	95088
#	108020
#	122133
#	135108
#	145510
#	157915
#	170858
#	182985
#	196475
#	208948
#	223565
#	238175
#	253275
#	264048
#	278880
#	291380
#	306298
#	317853
#
# Disc length: 4404 seconds
#
# Revision: 2
# Processed by: cddbd v1.4b41PL1 Copyright (c) Steve Scherf et al.
# Submitted via: Feurio! 1.50.2ß - http://www.feurio.com
#
DISCID=6f113219
DTITLE=Django Reinhardt - 1910-1953
DYEAR=1900
DGENRE=
TTITLE0=Stardust
TTITLE1=From You
TTITLE2=Rendez-Vouz Sous La Pluie
TTITLE3=I`Se A Muggin`
TTITLE4=After You`re Gone
TTITLE5=Georgia On My Mind
TTITLE6=In The Still Of The Night
TTITLE7=Charleston
TTITLE8=Solitude
TTITLE9=Ain`t Misbehavin`
TTITLE10=Mistery Pacific
TTITLE11=Honeysuckle Rose
TTITLE12=Hangin` Around Boudon
TTITLE13=Saint-Louis Blues
TTITLE14=Daphne
TTITLE15=Bill Coleman Blues
TTITLE16=Minor Swing
TTITLE17=Viper`s Dream
TTITLE18=Taj Mahal
TTITLE19=Montmartre
TTITLE20=Nuages
TTITLE21=Swing
TTITLE22=Manoir De Mes Reves
TTITLE23=Djangology
TTITLE24=Echoes Of France 
EXTD=
EXTT0=
EXTT1=
EXTT2=
EXTT3=
EXTT4=
EXTT5=
EXTT6=
EXTT7=
EXTT8=
EXTT9=
EXTT10=
EXTT11=
EXTT12=
EXTT13=
EXTT14=
EXTT15=
EXTT16=
EXTT17=
EXTT18=
EXTT19=
EXTT20=
EXTT21=
EXTT22=
EXTT23=
EXTT24=
PLAYORDER=
